HIERARCHY
ROOT Hips
{
	OFFSET 0.000000 0.000000 0.000000
	CHANNELS 6 Xposition Yposition Zposition Xrotation Yrotation Zrotation
	JOINT LeftUpLeg_virtual
	{
		OFFSET 0.000000 0.000000 0.000000
		CHANNELS 3 Xrotation Yrotation Zrotation
		JOINT LeftUpLeg
		{
			OFFSET 10.205400 -3.823500 0.155100
			CHANNELS 3 Xrotation Yrotation Zrotation
			JOINT LeftLeg
			{
				OFFSET 0.708757 -12.982077 0.567790
				CHANNELS 3 Xrotation Yrotation Zrotation
				JOINT LeftFoot
				{
					OFFSET -0.708756 -10.717838 -2.184338
					CHANNELS 3 Xrotation Yrotation Zrotation
					JOINT LeftToeBase
					{
						OFFSET 0.108149 -7.191104 7.560241
						CHANNELS 3 Xrotation Yrotation Zrotation
						JOINT LeftToe_End
						{
							OFFSET 0.070230 0.081724 4.490308
							CHANNELS 3 Xrotation Yrotation Zrotation
							End Site
							{
								OFFSET 0 0 0
							}
						}
					}
				}
			}
		}
	}
	JOINT RightUpLeg_virtual
	{
		OFFSET 0.000000 0.000000 0.000000
		CHANNELS 3 Xrotation Yrotation Zrotation
		JOINT RightUpLeg
		{
			OFFSET -10.205400 -3.823500 0.005500
			CHANNELS 3 Xrotation Yrotation Zrotation
			JOINT RightLeg
			{
				OFFSET -0.708756 -12.982134 0.610632
				CHANNELS 3 Xrotation Yrotation Zrotation
				JOINT RightFoot
				{
					OFFSET 0.708754 -10.717769 -1.945823
					CHANNELS 3 Xrotation Yrotation Zrotation
					JOINT RightToeBase
					{
						OFFSET -0.108140 -7.191069 7.372968
						CHANNELS 3 Xrotation Yrotation Zrotation
						JOINT RightToe_End
						{
							OFFSET -0.070227 0.081735 4.479403
							CHANNELS 3 Xrotation Yrotation Zrotation
							End Site
							{
								OFFSET 0 0 0
							}
						}
					}
				}
			}
		}
	}
	JOINT Spine_virtual
	{
		OFFSET 0.000000 0.000000 0.000000
		CHANNELS 3 Xrotation Yrotation Zrotation
		JOINT Spine
		{
			OFFSET 0.000000 6.876099 0.125700
			CHANNELS 3 Xrotation Yrotation Zrotation
			JOINT Spine1
			{
				OFFSET 0.000000 5.730043 0.104720
				CHANNELS 3 Xrotation Yrotation Zrotation
				JOINT Spine1_split
				{
					OFFSET 0.000000 5.730043 0.104720
					CHANNELS 3 Xrotation Yrotation Zrotation
					JOINT Spine2
					{
						OFFSET 0.000000 5.730043 0.104720
						CHANNELS 3 Xrotation Yrotation Zrotation
						JOINT Neck_virtual
						{
							OFFSET 0.000000 0.000000 0.000000
							CHANNELS 3 Xrotation Yrotation Zrotation
							JOINT Neck
							{
								OFFSET 0.000000 10.314075 0.188496
								CHANNELS 3 Xrotation Yrotation Zrotation
								JOINT Head
								{
									OFFSET 0.000000 7.643700 -2.377400
									CHANNELS 3 Xrotation Yrotation Zrotation
									JOINT HeadTop_End
									{
										OFFSET 0.000000 43.788605 -13.619600
										CHANNELS 3 Xrotation Yrotation Zrotation
										End Site
										{
											OFFSET 0 0 0
										}
									}
								}
							}
						}
						JOINT LeftShoulder_virtual
						{
							OFFSET 0.000000 0.000000 0.000000
							CHANNELS 3 Xrotation Yrotation Zrotation
							JOINT LeftShoulder
							{
								OFFSET 2.196100 4.412489 0.087492
								CHANNELS 3 Xrotation Yrotation Zrotation
								JOINT LeftShoulder_split
								{
									OFFSET 2.196100 4.412489 0.087492
									CHANNELS 3 Xrotation Yrotation Zrotation
									JOINT LeftArm
									{
										OFFSET 8.771219 -2.981674 -0.026999
										CHANNELS 3 Xrotation Yrotation Zrotation
										JOINT LeftForeArm
										{
											OFFSET 8.512804 0.000000 -0.000000
											CHANNELS 3 Xrotation Yrotation Zrotation
											JOINT LeftHand
											{
												OFFSET 18.484802 0.000000 -0.000000
												CHANNELS 3 Xrotation Yrotation Zrotation
												End Site
												{
													OFFSET 0 0 0
												}
											}
										}
									}
								}
							}
						}
						JOINT RightShoulder_virtual
						{
							OFFSET 0.000000 0.000000 0.000000
							CHANNELS 3 Xrotation Yrotation Zrotation
							JOINT RightShoulder
							{
								OFFSET -2.196100 4.412496 0.070690
								CHANNELS 3 Xrotation Yrotation Zrotation
								JOINT RightShoulder_split
								{
									OFFSET -2.196100 4.412496 0.070690
									CHANNELS 3 Xrotation Yrotation Zrotation
									JOINT RightArm
									{
										OFFSET -8.771282 -2.981682 -0.094208
										CHANNELS 3 Xrotation Yrotation Zrotation
										JOINT RightForeArm
										{
											OFFSET -8.494598 0.000000 0.000000
											CHANNELS 3 Xrotation Yrotation Zrotation
											JOINT RightHand
											{
												OFFSET -18.483803 0.000000 0.000001
												CHANNELS 3 Xrotation Yrotation Zrotation
												End Site
												{
													OFFSET 0 0 0
												}
											}
										}
									}
								}
							}
						}
					}
				}
			}
		}
	}
}
MOTION
Frames: 11
Frame Time: 0.03333333
-0.344276 35.296085 4.803522 0.000000 0.000000 0.000000 -17.288163 -16.196878 -3.194507 -77.230028 15.136198 39.234072 119.946591 -21.730551 -4.645116 -50.927195 -17.023715 32.203051 -45.480741 -2.805452 -5.768984 0.000000 0.000000 0.000000 -16.942645 -20.733985 -3.806470 -111.203970 -8.858983 -22.802843 124.481208 21.273119 0.537679 -12.422104 -6.497281 -0.940438 -39.490200 5.712988 8.019958 0.000000 0.000000 0.000000 -12.770703 -18.263789 -3.817966 5.238982 6.987004 -1.672453 13.431984 0.705189 -1.188857 -0.397228 -9.747138 1.616690 0.000000 0.000000 0.000000 19.215392 0.354666 -0.259495 -24.595907 0.271263 -3.524525 -9.478226 8.646780 3.251389 0.000000 0.000000 0.000000 14.731637 0.622086 -0.723825 0.733266 -2.595803 36.304689 1.240655 -2.178209 -0.911150 -46.722568 -30.373961 -7.765014 -18.001980 -38.082994 0.617411 0.000000 0.000000 0.000000 15.301278 0.055281 -0.743062 10.616219 18.184264 -37.468560 5.596487 4.055370 -0.885605 -53.473155 23.290902 10.228598 -16.825807 37.403099 7.108310 0.000000 0.000000 0.000000 
-0.492924 34.941830 4.625566 0.000000 0.000000 0.000000 -18.776559 -16.428767 -3.177931 -79.562729 14.587052 38.648339 121.394427 -21.596063 -3.969147 -49.272828 -16.057365 30.778496 -46.870995 -3.153828 -5.211017 0.000000 0.000000 0.000000 -18.733469 -20.055254 -3.930140 -110.725508 -8.650779 -23.276262 125.148122 20.909099 0.979094 -12.778344 -6.361374 0.943553 -42.233693 5.467529 8.277131 0.000000 0.000000 0.000000 -14.724443 -17.745868 -3.975650 5.628767 6.570659 -1.434390 13.412335 0.684199 -1.026542 0.671764 -7.000025 2.572804 0.000000 0.000000 0.000000 18.853982 0.246412 -0.121716 -23.767508 0.434274 -3.126885 -9.229738 9.550554 3.302577 0.000000 0.000000 0.000000 14.936702 0.523744 -0.346405 0.647142 -2.682162 36.852146 -0.818844 -1.644450 0.514229 -49.448165 -29.767498 -6.905320 -18.066959 -36.007395 1.606000 0.000000 0.000000 0.000000 14.776788 -0.138830 -0.748331 10.648186 19.418856 -37.285695 5.446682 0.541108 -0.442651 -56.273020 21.519612 11.162763 -19.321114 40.110993 8.836576 0.000000 0.000000 0.000000 
-0.655443 34.660305 4.398724 0.000000 0.000000 0.000000 -20.499440 -16.180964 -2.979383 -81.674596 14.206332 37.834173 122.873368 -21.046463 -2.453447 -45.690137 -14.506273 28.380218 -49.551749 -3.606823 -4.718148 0.000000 0.000000 0.000000 -21.045829 -18.702245 -3.792319 -109.007948 -7.648535 -24.254254 125.899511 19.899283 0.845902 -12.746879 -5.428840 1.645872 -43.800511 5.198510 9.253766 0.000000 0.000000 0.000000 -17.019655 -16.929650 -4.365006 6.178303 5.778353 -1.217723 12.946513 0.497584 -0.660661 4.169887 -4.880015 3.081303 0.000000 0.000000 0.000000 17.763891 0.100129 0.113757 -23.329257 0.482576 -2.080262 -9.301038 10.146449 2.799272 0.000000 0.000000 0.000000 14.096340 0.329770 0.142530 0.751668 -3.169866 37.911409 -1.304004 -1.844328 1.609810 -53.598779 -27.624869 -8.667641 -17.963925 -36.075912 2.547640 0.000000 0.000000 0.000000 13.387429 -0.395923 -0.528723 10.277835 20.622841 -36.780244 5.253270 -2.395954 0.641317 -57.241838 20.340428 11.210439 -22.367435 42.523720 9.953041 0.000000 0.000000 0.000000 
-0.673669 34.639847 4.101839 0.000000 0.000000 0.000000 -22.483629 -15.458595 -2.665157 -82.485169 14.341905 37.108452 122.768880 -19.994897 -1.302341 -41.757950 -12.674609 25.967421 -51.512109 -3.799956 -4.914971 0.000000 0.000000 0.000000 -23.466474 -16.732640 -3.483477 -105.346167 -6.456493 -25.384637 125.570419 18.276148 0.358427 -12.974660 -3.972777 0.385809 -44.883697 4.971532 10.655887 0.000000 0.000000 0.000000 -19.484525 -16.145063 -4.906940 7.083418 4.835217 -0.979094 12.454450 0.226772 -0.225144 6.328995 -1.891745 2.254566 0.000000 0.000000 0.000000 16.423945 -0.037171 0.363072 -23.520923 0.258415 -0.607936 -9.661414 10.410119 1.845378 0.000000 0.000000 0.000000 13.012131 0.063929 0.647928 1.051946 -3.919323 38.845731 -0.761526 -2.154080 2.470153 -57.768476 -24.340969 -12.524944 -17.765332 -37.195031 3.433175 0.000000 0.000000 0.000000 11.869409 -0.619056 -0.119332 9.799212 21.760879 -36.228396 4.730998 -3.310245 1.479295 -56.275742 19.908000 11.470596 -24.819096 44.712461 9.885237 0.000000 0.000000 0.000000 
-0.581981 34.959366 3.624714 0.000000 0.000000 0.000000 -25.198793 -14.660014 -2.479308 -81.437657 14.575391 36.323055 120.656221 -18.967034 -0.557064 -37.524670 -10.265257 23.045335 -52.668866 -3.629811 -5.618648 0.000000 0.000000 0.000000 -26.275581 -14.601665 -3.258311 -99.596999 -5.864318 -26.385670 123.968657 16.165449 -0.108706 -12.257867 -2.538237 -2.254289 -46.465449 4.800471 12.240706 0.000000 0.000000 0.000000 -22.139761 -15.389960 -5.353688 8.413290 4.047019 -0.728288 12.414044 -0.092825 0.183334 7.040977 0.465246 1.235685 0.000000 0.000000 0.000000 15.597768 -0.167707 0.599259 -24.203119 -0.382533 0.912896 -9.656471 10.404021 0.621650 0.000000 0.000000 0.000000 12.388430 -0.196487 1.029746 1.412610 -4.625792 39.133466 0.583072 -2.187193 3.184658 -61.353813 -20.450947 -17.601474 -17.670939 -37.776800 4.357959 0.000000 0.000000 0.000000 11.047957 -0.765979 0.405134 9.287856 22.736614 -35.968978 4.205928 -2.165601 2.058313 -54.277488 20.042174 12.431112 -25.670837 46.180261 8.111537 0.000000 0.000000 0.000000 
-0.348664 35.665783 3.011660 0.000000 0.000000 0.000000 -28.593037 -13.894212 -2.558729 -78.794032 14.589646 35.739320 116.719846 -18.437384 0.343681 -32.026112 -7.472608 18.844260 -55.107998 -3.301254 -6.177929 0.000000 0.000000 0.000000 -29.243352 -12.837719 -3.209304 -92.527582 -6.164383 -27.265434 121.275446 14.040117 -0.635347 -9.029446 -1.649637 -4.271553 -50.367191 4.459794 13.607981 0.000000 0.000000 0.000000 -25.347573 -14.607920 -5.511540 10.155451 3.746112 -0.466149 13.319595 -0.379490 0.382332 6.413793 1.526525 0.094482 0.000000 0.000000 0.000000 16.125107 -0.318393 0.684313 -24.840211 -1.324465 2.063892 -8.539370 10.710989 -0.475276 0.000000 0.000000 0.000000 13.039751 -0.425647 1.142513 1.667773 -5.014290 38.293561 1.679529 -1.004186 3.423422 -63.955528 -17.048839 -22.642929 -17.732723 -37.469263 5.442574 0.000000 0.000000 0.000000 11.708778 -0.846450 0.879889 8.785177 23.747014 -36.155436 3.010330 -0.177123 2.214186 -52.447298 20.462608 14.321939 -24.326851 46.528447 4.445751 0.000000 0.000000 0.000000 
-0.056549 36.687496 2.335635 0.000000 0.000000 0.000000 -32.105741 -12.994118 -2.904705 -74.398047 15.060600 35.201207 111.145380 -18.098379 0.923988 -25.331123 -4.812426 15.103819 -60.074164 -2.824771 -6.609619 0.000000 0.000000 0.000000 -32.061389 -11.213893 -3.242679 -84.672755 -7.644121 -27.899839 116.979871 12.659145 -1.225314 -3.517308 -1.110098 -4.026224 -56.996163 3.717124 14.413644 0.000000 0.000000 0.000000 -29.025425 -13.847842 -5.543091 11.952963 4.033094 0.010018 15.352341 -0.548396 0.364848 3.689239 2.000035 -0.839916 0.000000 0.000000 0.000000 18.147510 -0.446430 0.484988 -24.637915 -2.263839 2.539788 -5.976387 10.902612 -1.096914 0.000000 0.000000 0.000000 15.466511 -0.616240 0.923080 1.912154 -5.250702 36.063802 2.225217 0.672313 3.862998 -66.315686 -14.732651 -27.003906 -17.509407 -36.551272 7.021156 0.000000 0.000000 0.000000 14.192739 -0.757084 1.097607 8.551252 24.966445 -36.257957 1.352869 1.592474 2.365155 -51.877305 20.330625 16.643839 -21.219636 45.203643 -0.448418 0.000000 0.000000 0.000000 
0.138924 38.064617 1.712401 0.000000 0.000000 0.000000 -35.315418 -11.860017 -3.514888 -68.382877 16.118178 34.417989 103.822400 -17.848442 1.743932 -17.000008 -2.208598 11.095109 -68.036812 -2.131826 -6.602076 0.000000 0.000000 0.000000 -34.500153 -9.389700 -3.331553 -75.977897 -10.445827 -27.833537 111.035749 11.883541 -1.569649 3.115539 -0.533488 -2.235866 -64.603167 2.718491 14.702047 0.000000 0.000000 0.000000 -32.756071 -13.112874 -5.761056 13.304018 4.712098 0.700200 18.368846 -0.585634 0.206225 1.233067 1.733689 -0.913091 0.000000 0.000000 0.000000 21.534413 -0.550226 0.050582 -22.879389 -2.964252 2.234158 -2.001643 10.473798 -1.017999 0.000000 0.000000 0.000000 19.128326 -0.753273 0.492489 2.192501 -5.454122 32.838580 2.192699 1.609170 3.763517 -68.608239 -14.086764 -30.658605 -16.354022 -36.395503 9.195843 0.000000 0.000000 0.000000 18.118231 -0.573627 0.988718 8.428190 26.607045 -35.755572 0.254046 2.601544 2.329502 -52.703399 19.864497 18.229478 -17.758012 42.553704 -5.009576 0.000000 0.000000 0.000000 
0.168158 39.875633 0.899017 0.000000 0.000000 0.000000 -37.319074 -10.756850 -4.220290 -60.627061 17.861670 32.534664 93.462724 -17.005656 2.523489 -8.757214 0.108929 8.253461 -76.509307 -1.095076 -6.582406 0.000000 0.000000 0.000000 -35.972865 -7.210463 -3.417467 -65.988561 -14.562013 -26.299024 102.214211 10.984612 -1.236146 9.588059 -0.129510 -0.126611 -71.243504 1.710877 14.696086 0.000000 0.000000 0.000000 -35.583889 -12.480985 -6.339264 13.718922 5.361498 1.465789 21.628035 -0.582681 -0.088155 -0.616078 1.218547 -0.197450 0.000000 0.000000 0.000000 25.416350 -0.611727 -0.484352 -19.534252 -3.379793 1.449613 2.350742 9.498945 -0.083057 0.000000 0.000000 0.000000 23.009302 -0.842075 -0.015628 2.497261 -5.632293 28.951092 1.974030 1.305049 3.130858 -70.570703 -15.043072 -33.704777 -13.015244 -38.475357 12.411012 0.000000 0.000000 0.000000 22.497673 -0.452699 0.599834 8.512998 28.754471 -34.316674 0.190496 2.914154 1.910815 -54.646735 19.740396 18.823822 -14.652894 40.627734 -8.167583 0.000000 0.000000 0.000000 
0.066052 42.072090 0.025861 0.000000 0.000000 0.000000 -37.485663 -9.835148 -4.824364 -51.227208 19.644271 28.940669 78.501024 -15.644227 3.239987 -1.259077 2.503040 6.220567 -82.099482 0.317704 -6.640039 0.000000 0.000000 0.000000 -36.156535 -5.074451 -3.570235 -54.760844 -19.105342 -22.796023 89.588593 9.701924 -0.221589 15.913381 -0.172517 2.485991 -75.231952 0.882596 14.794994 0.000000 0.000000 0.000000 -36.597974 -11.730461 -6.959401 12.927138 5.565934 2.054460 24.219958 -0.635262 -0.295718 -1.636719 0.892557 0.738937 0.000000 0.000000 0.000000 28.462143 -0.625195 -0.897241 -15.279102 -3.680328 0.498769 5.404466 7.687685 1.517651 0.000000 0.000000 0.000000 26.013414 -0.893489 -0.348317 2.911899 -5.840599 24.782616 1.771997 -0.542783 2.509585 -71.948960 -17.019406 -36.474682 -6.362904 -42.834462 17.265897 0.000000 0.000000 0.000000 25.905468 -0.449717 0.294262 8.519077 30.942260 -31.155249 1.340366 3.480018 0.809287 -56.891770 20.730536 18.985399 -11.836563 40.826377 -9.936224 0.000000 0.000000 0.000000 
-0.062726 44.750828 -0.839113 0.000000 0.000000 0.000000 -35.508955 -9.132853 -5.135960 -41.661494 20.402940 24.271408 58.879844 -14.874231 4.292599 6.649108 4.402348 2.383969 -82.475210 1.930994 -6.582303 0.000000 0.000000 0.000000 -34.815837 -3.668135 -3.748265 -43.255820 -22.329089 -17.500318 73.170314 7.569926 0.304993 22.230915 -0.478625 6.195413 -76.476371 0.315268 15.218032 0.000000 0.000000 0.000000 -35.276127 -11.153686 -7.393653 10.975552 5.300411 2.263532 25.398689 -0.665927 -0.260425 -1.398118 0.456918 1.398715 0.000000 0.000000 0.000000 29.517967 -0.548465 -1.004054 -10.857216 -4.019712 -0.274280 6.457931 5.291479 3.289219 0.000000 0.000000 0.000000 27.298137 -0.879021 -0.261705 3.308950 -6.035838 20.484255 1.892843 -2.149264 1.523323 -72.191958 -20.051801 -39.289195 5.018512 -49.743366 24.998226 0.000000 0.000000 0.000000 27.244952 -0.472298 0.355698 8.049665 32.950759 -25.905198 2.682184 4.081260 -0.949836 -58.532051 23.174118 19.581924 -9.074597 43.335689 -10.587812 0.000000 0.000000 0.000000 
